HIERARCHY
ROOT Hips
{
     OFFSET 1.88212 96.90440 -13.34250
     CHANNELS 6 Xposition Yposition Zposition Zrotation Xrotation Yrotation
     JOINT Spine
     {
          OFFSET 0.00000 11.89050 0.00000
          CHANNELS 3 Zrotation Xrotation Yrotation
          JOINT Spine1
          {
               OFFSET -0.00000 25.65740 0.12766
               CHANNELS 3 Zrotation Xrotation Yrotation
               JOINT HEad
               {
                    OFFSET 0.00000 8.73416 0.01134
                    CHANNELS 3 Zrotation Xrotation Yrotation
                    End Site
                    {
                         OFFSET -0.29000 12.77420 2.51395
                    }
               }
               JOINT LeftShoulder1
               {
                    OFFSET 8.99000 -0.36225 -0.22000
                    CHANNELS 3 Zrotation Xrotation Yrotation
                    JOINT LeftArm
                    {
                         OFFSET 10.28270 -0.00338 0.32212
                         CHANNELS 3 Zrotation Xrotation Yrotation
                         JOINT LeftForeArm
                         {
                              OFFSET 32.76690 0.09914 -1.42434
                              CHANNELS 3 Zrotation Xrotation Yrotation
                              JOINT LeftHand
                              {
                                   OFFSET 27.56430 0.08536 1.02216
                                   CHANNELS 3 Zrotation Xrotation Yrotation
                                   End Site
                                   {
                                        OFFSET 16.74430 -0.60000 1.50291
                                   }
                              }
                         }
                    }
               }
               JOINT RightShoulder
               {
                    OFFSET -8.99000 -0.36225 -0.22000
                    CHANNELS 3 Zrotation Xrotation Yrotation
                    JOINT RightArm
                    {
                         OFFSET -10.28270 -0.00338 0.32212
                         CHANNELS 3 Zrotation Xrotation Yrotation
                         JOINT RightForeArm
                         {
                              OFFSET -32.89710 0.09914 -1.42434
                              CHANNELS 3 Zrotation Xrotation Yrotation
                              JOINT RightHand
                              {
                                   OFFSET -27.49210 0.08536 1.02216
                                   CHANNELS 3 Zrotation Xrotation Yrotation
                                   End Site
                                   {
                                        OFFSET -16.63120 -0.60000 1.50291
                                   }
                              }
                         }
                    }
               }
          }
     }
     JOINT LeftUpLeg
     {
          OFFSET 8.94580 -8.66707 0.10165
          CHANNELS 3 Zrotation Xrotation Yrotation
          JOINT LeftLeg
          {
               OFFSET 0.00000 -44.42270 1.37270
               CHANNELS 3 Zrotation Xrotation Yrotation
               JOINT LeftFoot
               {
                    OFFSET -0.25355 -42.09240 -1.46059
                    CHANNELS 3 Zrotation Xrotation Yrotation
                    JOINT LeftToes
                    {
                         OFFSET -0.04000 -4.41509 8.49910
                         CHANNELS 3 Zrotation Xrotation Yrotation
                         End Site
                         {
                              OFFSET 0.08000 -0.04745 9.77979
                         }
                    }
               }
          }
     }
     JOINT RightUpLeg
     {
          OFFSET -8.94580 -8.66707 0.10165
          CHANNELS 3 Zrotation Xrotation Yrotation
          JOINT RightLeg
          {
               OFFSET 0.00000 -44.42270 1.37270
               CHANNELS 3 Zrotation Xrotation Yrotation
               JOINT RightFoot
               {
                    OFFSET 0.25355 -42.09240 -1.46059
                    CHANNELS 3 Zrotation Xrotation Yrotation
                    JOINT RightToes
                    {
                         OFFSET 0.04000 -4.41509 8.49910
                         CHANNELS 3 Zrotation Xrotation Yrotation
                         End Site
                         {
                              OFFSET -0.08000 -0.13745 9.77979
                         }
                    }
               }
          }
     }
}
MOTION
Frames: 13
Frame Time: 0.01667
59.77028 92.82359 -269.02682 3.08892 14.90104 170.62616 -4.07768 22.35997 -0.12245 -0.00022 0.00236 -0.00109 -1.92348 10.83375 12.53502 2.67288 7.82277 2.03167 -136.05092 -66.17043 -108.93040 -45.89029 59.78364 -74.28008 17.79174 7.71982 -11.24520 15.65115 8.54451 -1.19496 82.99310 -1.91419 70.56536 12.80135 32.10022 105.84536 16.63727 11.14124 5.34092 18.08046 -1.51273 1.02680 -24.49443 7.04515 55.02343 5.97418 -0.00309 0.00243 4.00467 -12.40313 -63.80993 -27.85602 9.90073 21.51047 29.05281 18.63529 -34.36712 -20.12888 0.00491 -0.00284 12.38170 -45.41757 19.09804 
59.38408 92.72628 -269.36575 2.69721 14.64548 170.85855 -4.72733 22.08324 0.00112 0.00046 0.00212 -0.00119 -2.26293 10.83626 12.29073 3.03384 7.90471 1.68563 -136.03801 -65.78532 -108.90492 -46.08363 59.44624 -73.64648 17.60954 7.67097 -10.75570 15.56423 8.58900 -1.33446 83.29379 -1.66606 70.90233 12.72467 32.03073 105.57197 16.58303 11.37416 5.37522 17.80041 -1.98665 -0.84494 -25.12402 6.62529 57.53181 6.33194 -0.00231 0.00226 3.88720 -12.47758 -63.87822 -27.50507 11.22231 21.58088 28.46042 14.71609 -34.17412 -21.17588 -0.00025 0.01838 11.65353 -44.51271 19.06054 
59.01599 92.68704 -269.77640 2.31737 14.46116 171.08534 -5.25473 21.90598 0.05560 0.00397 0.00743 -0.00319 -2.66206 10.82738 12.06636 3.19548 7.89451 1.32976 -134.41862 -65.45524 -107.41929 -45.36248 58.79602 -73.52483 17.44641 7.84892 -10.50867 15.83497 8.52296 -1.50515 83.10683 -1.40910 71.09059 12.48187 31.91055 105.55147 16.47243 11.50149 5.44912 17.85263 -2.61610 -3.84323 -26.16922 6.14251 60.92305 6.44044 -0.00074 0.00237 3.59538 -13.06282 -63.66026 -27.07400 12.24137 21.51064 30.50419 10.07303 -35.75238 -25.86883 -0.04909 0.04043 12.26935 -43.94587 20.24047 
58.69028 92.69722 -270.25366 1.96403 14.36543 171.30540 -5.64183 21.82261 0.04301 0.00441 0.00703 -0.00358 -3.10931 10.83698 11.86183 3.29522 7.88266 1.07225 -131.90660 -65.13493 -105.02941 -44.15065 57.94395 -73.78100 17.38453 7.91991 -10.62263 16.05271 8.46032 -1.69569 82.86725 -1.13294 71.19643 12.14882 31.78047 105.69263 16.40189 11.49571 5.40286 18.19893 -3.40621 -7.85700 -27.70410 5.53606 65.07410 6.35496 0.00058 0.00115 3.22620 -13.89336 -63.28384 -26.68845 12.98456 21.34270 34.17907 5.34867 -38.38744 -32.14476 -0.12071 -0.01910 14.20186 -44.55774 22.78988 
58.42567 92.72495 -270.76965 1.64822 14.35958 171.49725 -5.89084 21.81616 -0.01033 0.00460 0.00657 -0.00377 -3.59169 10.87011 11.68129 3.30756 7.87322 0.88268 -128.99139 -64.88988 -102.24532 -42.75570 56.98885 -74.28334 17.25682 8.10721 -10.77131 16.25478 8.40308 -1.87507 82.56682 -0.87431 71.19487 11.75906 31.66182 105.97392 16.23960 11.46651 5.43932 19.02880 -4.55888 -12.70019 -29.05365 4.42185 69.58448 5.19545 -0.00612 -0.00612 3.77863 -13.88735 -62.64503 -26.55137 13.63056 21.15395 35.44564 2.78642 -40.35695 -30.15075 0.03004 0.00040 10.91430 -45.56658 25.28730 
58.20345 92.69012 -271.31079 1.40616 14.43187 171.64481 -5.94998 21.86378 -0.09599 0.00620 0.00613 -0.00338 -4.09469 10.93039 11.52580 3.41504 7.83973 0.76888 -126.02703 -64.74088 -99.29868 -41.38471 55.97767 -74.92225 17.07034 8.36707 -11.16533 16.57853 8.32773 -1.99860 82.13573 -0.67473 71.06087 11.33395 31.56315 106.35682 15.91249 11.39593 5.52603 19.73919 -5.63935 -17.20044 -30.42165 3.63188 73.56406 3.84048 -0.00251 0.00020 4.26594 -14.01268 -61.71500 -26.69040 14.22104 20.97311 35.83131 1.57433 -41.99432 -26.82505 0.05669 0.01347 7.89908 -46.76225 27.63195 
57.99500 92.57851 -271.90048 1.25630 14.57415 171.73096 -5.53459 21.57162 -0.29248 0.00445 0.00988 -0.00286 -4.85035 11.39268 11.42477 3.34436 8.14802 0.64567 -123.19879 -64.72295 -96.45911 -40.14835 54.95406 -75.58640 16.87141 8.60267 -11.48024 16.70548 8.58037 -2.17717 81.71027 -0.49805 70.82107 10.88102 31.48841 106.78119 15.62492 11.36114 5.62351 20.41226 -6.83597 -21.33550 -29.45003 3.91034 75.29777 1.00698 -0.05077 0.05064 5.09384 -11.59443 -59.15197 -27.01338 14.73321 20.80519 35.88497 1.31881 -43.39308 -22.73980 0.06203 0.02111 4.84919 -48.10850 29.61207 
57.76303 92.38785 -272.57733 1.21409 14.77512 171.74687 -4.67359 21.01088 -0.57954 0.00206 0.01357 -0.00236 -5.81174 12.17209 11.39112 3.11204 8.71348 0.50421 -120.58548 -64.83202 -93.84541 -39.09510 53.95172 -76.20428 16.66603 8.81749 -11.88363 16.60976 9.07891 -2.40059 81.36985 -0.30860 70.51624 10.40936 31.43727 107.18772 15.30577 11.33025 5.72594 20.91267 -8.13734 -25.12623 -26.16653 5.09799 73.79886 -9.36367 -0.53375 0.25856 12.72477 -6.24392 -54.22300 -27.40129 15.14137 20.63724 35.90081 1.75400 -44.60739 -18.26370 0.06083 0.02723 1.76137 -49.65271 31.37450 
57.46571 92.11971 -273.37540 1.28847 15.01987 171.69226 -3.40514 20.23560 -0.94370 -0.00063 0.01686 -0.00197 -6.92995 13.19252 11.43638 2.72384 9.46677 0.34257 -118.22543 -65.06057 -91.52609 -38.23457 53.00404 -76.73388 16.47702 8.96799 -12.19018 16.28927 9.75841 -2.65422 81.15216 -0.08842 70.18427 9.93501 31.40885 107.53025 15.07407 11.31959 5.82080 21.26131 -9.49160 -28.58506 -24.17308 6.32940 73.58124 -8.84181 0.00249 0.02492 9.68892 -2.95071 -49.66914 -27.76780 15.43111 20.45142 35.98778 2.74121 -45.67078 -13.57563 0.05793 0.03283 -1.40400 -51.32257 32.88036 
57.08747 91.78896 -274.28110 1.42208 15.28417 171.60625 -2.02823 19.40374 -1.30894 -0.00137 0.00603 -0.00089 -8.07935 14.29233 11.52557 2.29470 10.28889 0.20985 -115.87754 -65.29028 -89.25143 -37.50938 52.05298 -77.18249 16.28794 9.10522 -12.49917 15.95894 10.50323 -2.96788 80.94531 0.20297 69.82244 9.41202 31.41031 107.89574 14.84540 11.30217 5.90750 21.48268 -10.87478 -31.96505 -22.50564 7.68685 73.54998 -9.69477 -0.02394 0.02089 7.88428 0.46396 -45.61049 -28.18214 15.71118 20.29080 36.06156 3.98929 -46.66521 -8.73749 0.06191 0.03381 -4.38887 -53.03114 34.43225 
56.62180 91.41226 -275.27795 1.61029 15.55429 171.49518 -0.54401 18.51524 -1.68580 -0.00163 0.00624 -0.00065 -9.25468 15.42824 11.66148 1.83933 11.12888 0.06163 -113.62597 -65.54913 -87.08920 -36.88435 51.13043 -77.55475 16.10193 9.25102 -12.83390 15.57660 11.26505 -3.28081 80.78488 0.51257 69.45375 8.89766 31.42510 108.22050 14.62588 11.27250 5.99768 21.59149 -12.24260 -35.26609 -21.07865 9.15952 73.69218 -11.42026 -0.05244 0.03222 6.79411 3.61567 -41.72998 -28.61256 15.96440 20.13704 36.17529 5.43388 -47.58990 -3.81543 0.06381 0.03310 -7.25285 -54.72771 35.99873 
56.07490 90.99994 -276.34760 1.84385 15.81971 171.36215 0.95414 17.68232 -2.04178 -0.00104 0.00582 -0.00065 -10.35979 16.49099 11.81578 1.43631 11.87188 -0.12785 -111.50894 -65.85346 -85.07705 -36.33877 50.26056 -77.85879 15.92717 9.39984 -13.19001 15.20969 11.93085 -3.55965 80.67414 0.81626 69.08975 8.43243 31.44526 108.46903 14.43748 11.22418 6.08945 21.58445 -13.54504 -38.48720 -19.33877 10.59673 73.77704 -16.38440 -0.17791 0.07423 8.73892 7.06646 -37.91312 -29.04946 16.17443 19.98076 36.35301 7.03088 -48.44495 1.15434 0.06494 0.03155 -10.03948 -56.38851 37.56037 
55.53744 91.43077 -277.34128 2.06729 16.04905 171.23038 2.81746 16.84121 -2.62105 0.02800 0.00372 -0.01002 -11.70525 17.83314 12.43058 4.05691 10.57591 -1.40673 -108.65379 -67.59520 -79.86275 -35.49180 49.65188 -79.12653 13.92423 13.51301 -15.56020 17.90913 10.94107 -3.50299 76.13092 -0.69258 67.46629 7.95783 31.84201 108.31551 11.85648 13.68211 1.29807 21.04623 -14.24743 -41.35362 -18.83860 12.32903 73.21555 -21.05192 -0.15766 -0.02253 10.17389 8.22203 -33.76971 -29.01149 16.02300 19.41189 35.77755 8.00876 -47.79572 5.23298 -0.02469 0.01514 -10.38457 -51.81579 36.58593 
